HIERARCHY
ROOT root
{
	OFFSET 0.00 0.00 0.00
	CHANNELS 6 Xposition Yposition Zposition Zrotation Xrotation Yrotation
	JOINT lowerback
	{
		OFFSET 0 0 0
		CHANNELS 6 Xposition Yposition Zposition Zrotation Xrotation Yrotation
		JOINT upperback
		{
			OFFSET -0.214371 12.3768 -1.12219
			CHANNELS 6 Xposition Yposition Zposition Zrotation Xrotation Yrotation
			JOINT thorax
			{
				OFFSET -0.00137213 12.3873 0.296195
				CHANNELS 6 Xposition Yposition Zposition Zrotation Xrotation Yrotation
				JOINT lowerneck
				{
					OFFSET 0.0883157 12.5016 0.82912
					CHANNELS 6 Xposition Yposition Zposition Zrotation Xrotation Yrotation
					JOINT upperneck
					{
						OFFSET -1 10.1794 0.943522
						CHANNELS 6 Xposition Yposition Zposition Zrotation Xrotation Yrotation
						JOINT head
						{
							OFFSET 0.667525 10.2797 -1.57149
							CHANNELS 6 Xposition Yposition Zposition Zrotation Xrotation Yrotation
							End Site
							{
								OFFSET 0 0 0
							}
						}
					}
				}
				JOINT lclavicle
				{
					OFFSET 0.0883157 12.5016 0.82912
					CHANNELS 6 Xposition Yposition Zposition Zrotation Xrotation Yrotation
					JOINT lhumerus
					{
						OFFSET 20.61 4.45006 1.43784
						CHANNELS 6 Xposition Yposition Zposition Zrotation Xrotation Yrotation
						JOINT lradius
						{
							OFFSET 0 -30.3438 0
							CHANNELS 6 Xposition Yposition Zposition Zrotation Xrotation Yrotation
							JOINT lwrist
							{
								OFFSET 0 -18.964 0
								CHANNELS 6 Xposition Yposition Zposition Zrotation Xrotation Yrotation
								JOINT lhand
								{
									OFFSET 0 -9.48199 0
									CHANNELS 6 Xposition Yposition Zposition Zrotation Xrotation Yrotation
									JOINT lfingers
									{
										OFFSET 0 -3.17138 0
										CHANNELS 6 Xposition Yposition Zposition Zrotation Xrotation Yrotation
										End Site
										{
											OFFSET 0 -2.55685 0
										}
									}
								}
								JOINT lthumb
								{
									OFFSET 0 -9.48199 0
									CHANNELS 6 Xposition Yposition Zposition Zrotation Xrotation Yrotation
									End Site
									{
										OFFSET 0 -3.67114 0
									}
								}
							}
						}
					}
				}
				JOINT rclavicle
				{
					OFFSET 0.0883157 12.5016 0.82912
					CHANNELS 6 Xposition Yposition Zposition Zrotation Xrotation Yrotation
					JOINT rhumerus
					{
						OFFSET -20.61 4.45 1.44
						CHANNELS 6 Xposition Yposition Zposition Zrotation Xrotation Yrotation
						JOINT rradius
						{
							OFFSET 0 -29.5102 0
							CHANNELS 6 Xposition Yposition Zposition Zrotation Xrotation Yrotation
							JOINT rwrist
							{
								OFFSET 0 -19.2342 0
								CHANNELS 6 Xposition Yposition Zposition Zrotation Xrotation Yrotation
								JOINT rhand
								{
									OFFSET 0 -9.61712 0
									CHANNELS 6 Xposition Yposition Zposition Zrotation Xrotation Yrotation
									JOINT rfingers
									{
										OFFSET 0 -3.29215 0
										CHANNELS 6 Xposition Yposition Zposition Zrotation Xrotation Yrotation
										End Site
										{
											OFFSET 0 -2.557 0
										}
									}
								}
								JOINT rthumb
								{
									OFFSET 0 -9.61712 0
									CHANNELS 6 Xposition Yposition Zposition Zrotation Xrotation Yrotation
									End Site
									{
										OFFSET 0 -3.671 0
									}
								}
							}
						}
					}
				}
			}
		}
	}
	JOINT rfemur
	{
		OFFSET -8.46272 -9.62775 4.76248
		CHANNELS 6 Xposition Yposition Zposition Zrotation Xrotation Yrotation
		JOINT rtibia
		{
			OFFSET 1.00552e-005 -38.0331 0
			CHANNELS 6 Xposition Yposition Zposition Zrotation Xrotation Yrotation
			JOINT rfoot
			{
				OFFSET 1.14428e-005 -43.2815 0
				CHANNELS 6 Xposition Yposition Zposition Zrotation Xrotation Yrotation
				JOINT rtoes
				{
					OFFSET 0 -14.1868 -3.08763
					CHANNELS 6 Xposition Yposition Zposition Zrotation Xrotation Yrotation
					End Site
					{
						OFFSET 0 -7.27332 0
					}
				}
			}
		}
	}
	JOINT lfemur
	{
		OFFSET 9.10607 -9.62778 4.76249
		CHANNELS 6 Xposition Yposition Zposition Zrotation Xrotation Yrotation
		JOINT ltibia
		{
			OFFSET -1.01399e-005 -38.3535 0
			CHANNELS 6 Xposition Yposition Zposition Zrotation Xrotation Yrotation
			JOINT lfoot
			{
				OFFSET -1.12937e-005 -42.7176 0
				CHANNELS 6 Xposition Yposition Zposition Zrotation Xrotation Yrotation
				JOINT ltoes
				{
					OFFSET 0 -13.9965 -2.83857
					CHANNELS 6 Xposition Yposition Zposition Zrotation Xrotation Yrotation
					End Site
					{
						OFFSET 0 -7.16348 0
					}
				}
			}
		}
	}
}
MOTION
Frames: 6
Frame Time: 0.00833333
1.85565	92.2218	28.7181	2.95794	13.7567	-3.67373	0 0 0 8.16257	16.9707	-6.25547	-0.214371 12.3768 -1.12219 0.110493	15.6788	-7.8631	-0.00137213 12.3873 0.296195 -4.43444	6.70608	-3.33311	0.0883157 12.5016 0.82912 2.59637	6.3899	2.32515	-1 10.1794 0.943522 -0.536156	-16.6002	3.36769	0.667525 10.2797 -1.57149 -1.01252	-6.00684	1.48325	0.0883157 12.5016 0.82912 -15	0	-0	20.61 4.45006 1.43784 16.2761	-49.9953	140.432	0 -30.3438 0 -180	88.7831	180	0 -18.964 0 1.49526e-015	1.67566e-015	-79.2592	0 -9.48199 0 1.22245	4.37968	-2.58917e-014	0 -3.17138 0 -0	7.12502	-0	0 -9.48199 0 25	15	-1.36605e-015	0.0883157 12.5016 0.82912 15	0	-0	-20.61 4.45 1.44 -25.681	21.9944	-164.136	0 -29.5102 0 180	88.3737	-180	0 -19.2342 0 2.09052e-015	-4.99668e-015	135.407	0 -9.61712 0 1.22	4.38	-0	0 -3.29215 0 -0	7.12502	-0	0 -9.61712 0 25	15	-7.97034e-015	-8.46272 -9.62775 4.76248 6.49875	-55.4037	0.685256	1.00552e-005 -38.0331 0 -0	32.7978	-0	1.14428e-005 -43.2815 0 -69.0298	-74.7843	-69.7037	0 -14.1868 -3.08763 -0	-30.0267	-0	9.10607 -9.62778 4.76249 -4.4768	-22.3756	21.5365	-1.01399e-005 -38.3535 0 -0	52.9914	-0	-1.12937e-005 -42.7176 0 -67.3351	-78.5147	-67.7446	0 -13.9965 -2.83857 -0	-34.5219	-0
1.88612	91.9813	29.3962	2.8971	13.8516	-3.51709	0 0 0 8.28215	17.1438	-6.32362	-0.214371 12.3768 -1.12219 0.185216	15.6346	-7.91375	-0.00137213 12.3873 0.296195 -4.38388	6.56094	-3.35976	0.0883157 12.5016 0.82912 2.62456	6.24752	2.33108	-1 10.1794 0.943522 -0.557455	-16.7187	3.37117	0.667525 10.2797 -1.57149 -1.02436	-6.01841	1.4828	0.0883157 12.5016 0.82912 -15	0	-0	20.61 4.45006 1.43784 15.8099	-49.4816	139.945	0 -30.3438 0 -180	88.403	180	0 -18.964 0 1.50632e-015	1.61626e-015	-79.6442	0 -9.48199 0 1.22245	4.37968	-2.58917e-014	0 -3.17138 0 -0	7.12502	-0	0 -9.48199 0 25	15	-1.36605e-015	0.0883157 12.5016 0.82912 15	0	-0	-20.61 4.45 1.44 -25.835	22.5154	-164.1	0 -29.5102 0 180	88.56	-180	0 -19.2342 0 2.08807e-015	-4.99427e-015	135.379	0 -9.61712 0 1.22	4.38	-0	0 -3.29215 0 -0	7.12502	-0	0 -9.61712 0 25	15	-7.97034e-015	-8.46272 -9.62775 4.76248 6.3431	-55.796	0.389585	1.00552e-005 -38.0331 0 -0	33.9443	-0	1.14428e-005 -43.2815 0 -67.7615	-74.3821	-68.5061	0 -14.1868 -3.08763 -0	-29.2913	-0	9.10607 -9.62778 4.76249 -4.37775	-22.4092	21.3673	-1.01399e-005 -38.3535 0 -0	53.7217	-0	-1.12937e-005 -42.7176 0 -68.1986	-78.5438	-68.5936	0 -13.9965 -2.83857 -0	-35.2691	-0
1.92578	91.7555	30.0683	2.83399	13.9253	-3.40887	0 0 0 8.39382	17.3733	-6.38121	-0.214371 12.3768 -1.12219 0.255549	15.6113	-7.94844	-0.00137213 12.3873 0.296195 -4.33024	6.41451	-3.37959	0.0883157 12.5016 0.82912 2.65327	6.10704	2.34108	-1 10.1794 0.943522 -0.587928	-16.8812	3.37706	0.667525 10.2797 -1.57149 -1.0408	-6.04403	1.48263	0.0883157 12.5016 0.82912 -15	0	-0	20.61 4.45006 1.43784 15.4346	-49.032	139.525	0 -30.3438 0 -180	87.9975	180	0 -18.964 0 1.51651e-015	1.5595e-015	-80.0117	0 -9.48199 0 1.22245	4.37968	-2.58917e-014	0 -3.17138 0 -0	7.12502	-0	0 -9.48199 0 25	15	-1.36605e-015	0.0883157 12.5016 0.82912 15	0	-0	-20.61 4.45 1.44 -25.9902	22.9778	-164.062	0 -29.5102 0 180	88.7304	-180	0 -19.2342 0 2.08476e-015	-4.991e-015	135.341	0 -9.61712 0 1.22	4.38	-0	0 -3.29215 0 -0	7.12502	-0	0 -9.61712 0 25	15	-7.97034e-015	-8.46272 -9.62775 4.76248 6.23335	-56.2526	0.0814982	1.00552e-005 -38.0331 0 -0	35.1675	-0	1.14428e-005 -43.2815 0 -66.1522	-73.9971	-66.9781	0 -14.1868 -3.08763 -0	-28.5763	-0	9.10607 -9.62778 4.76249 -4.26937	-22.4485	21.2118	-1.01399e-005 -38.3535 0 -0	54.4766	-0	-1.12937e-005 -42.7176 0 -69.0537	-78.5961	-69.4326	0 -13.9965 -2.83857 -0	-36.0145	-0
1.97467	91.519	30.6651	2.77125	13.9792	-3.35952	0 0 0 8.49147	17.6575	-6.42357	-0.214371 12.3768 -1.12219 0.318955	15.611	-7.96224	-0.00137213 12.3873 0.296195 -4.27378	6.27084	-3.3904	0.0883157 12.5016 0.82912 2.68449	5.97144	2.35403	-1 10.1794 0.943522 -0.629106	-17.0875	3.38616	0.667525 10.2797 -1.57149 -1.06264	-6.08418	1.48267	0.0883157 12.5016 0.82912 -15	0	-0	20.61 4.45006 1.43784 15.1461	-48.6509	139.165	0 -30.3438 0 -180	87.5694	180	0 -18.964 0 1.52585e-015	1.50547e-015	-80.3611	0 -9.48199 0 1.22245	4.37968	-2.58917e-014	0 -3.17138 0 -0	7.12502	-0	0 -9.48199 0 25	15	-1.36605e-015	0.0883157 12.5016 0.82912 15	0	-0	-20.61 4.45 1.44 -26.1412	23.3729	-164.026	0 -29.5102 0 180	88.8859	-180	0 -19.2342 0 2.08076e-015	-4.98704e-015	135.295	0 -9.61712 0 1.22	4.38	-0	0 -3.29215 0 -0	7.12502	-0	0 -9.61712 0 25	15	-7.97034e-015	-8.46272 -9.62775 4.76248 6.17253	-56.7664	-0.221109	1.00552e-005 -38.0331 0 -0	36.4615	-0	1.14428e-005 -43.2815 0 -64.2642	-73.6336	-65.1789	0 -14.1868 -3.08763 -0	-27.8792	-0	9.10607 -9.62778 4.76249 -4.15433	-22.489	21.0711	-1.01399e-005 -38.3535 0 -0	55.2506	-0	-1.12937e-005 -42.7176 0 -69.8923	-78.6696	-70.2539	0 -13.9965 -2.83857 -0	-36.7682	-0
2.01002	91.2503	31.2228	2.71164	14.0145	-3.3759	0 0 0 8.5705	17.9922	-6.44751	-0.214371 12.3768 -1.12219 0.372838	15.6353	-7.95221	-0.00137213 12.3873 0.296195 -4.21586	6.13435	-3.39077	0.0883157 12.5016 0.82912 2.71941	5.84496	2.36874	-1 10.1794 0.943522 -0.681932	-17.3362	3.39622	0.667525 10.2797 -1.57149 -1.09017	-6.13918	1.48284	0.0883157 12.5016 0.82912 -15	0	-0	20.61 4.45006 1.43784 14.9396	-48.3412	138.863	0 -30.3438 0 -180	87.1234	180	0 -18.964 0 1.53441e-015	1.45416e-015	-80.6926	0 -9.48199 0 1.22245	4.37968	-2.58917e-014	0 -3.17138 0 -0	7.12502	-0	0 -9.48199 0 25	15	-1.36605e-015	0.0883157 12.5016 0.82912 15	0	-0	-20.61 4.45 1.44 -26.2832	23.6939	-163.995	0 -29.5102 0 180	89.0274	-180	0 -19.2342 0 2.07649e-015	-4.98282e-015	135.246	0 -9.61712 0 1.22	4.38	-0	0 -3.29215 0 -0	7.12502	-0	0 -9.61712 0 25	15	-7.97034e-015	-8.46272 -9.62775 4.76248 6.16143	-57.3274	-0.500487	1.00552e-005 -38.0331 0 -0	37.8192	-0	1.14428e-005 -43.2815 0 -62.1704	-73.2931	-63.1777	0 -14.1868 -3.08763 -0	-27.1894	-0	9.10607 -9.62778 4.76249 -4.03634	-22.5251	20.945	-1.01399e-005 -38.3535 0 -0	56.0373	-0	-1.12937e-005 -42.7176 0 -70.7108	-78.7619	-71.0544	0 -13.9965 -2.83857 -0	-37.5386	-0
2.07114	90.9687	31.7817	2.65783	14.0327	-3.46036	0 0 0 8.62827	18.3712	-6.45169	-0.214371 12.3768 -1.12219 0.41489	15.685	-7.91772	-0.00137213 12.3873 0.296195 -4.15869	6.00934	-3.38021	0.0883157 12.5016 0.82912 2.75824	5.73281	2.38412	-1 10.1794 0.943522 -0.745697	-17.6242	3.40612	0.667525 10.2797 -1.57149 -1.12302	-6.20902	1.48306	0.0883157 12.5016 0.82912 -15	0	-0	20.61 4.45006 1.43784 14.8091	-48.1042	138.616	0 -30.3438 0 -180	86.6658	180	0 -18.964 0 1.54226e-015	1.40547e-015	-81.0069	0 -9.48199 0 1.22245	4.37968	-2.58917e-014	0 -3.17138 0 -0	7.12502	-0	0 -9.48199 0 25	15	-1.36605e-015	0.0883157 12.5016 0.82912 15	0	-0	-20.61 4.45 1.44 -26.4118	23.9356	-163.97	0 -29.5102 0 180	89.1553	-180	0 -19.2342 0 2.07215e-015	-4.97851e-015	135.196	0 -9.61712 0 1.22	4.38	-0	0 -3.29215 0 -0	7.12502	-0	0 -9.61712 0 25	15	-7.97034e-015	-8.46272 -9.62775 4.76248 6.19904	-57.9231	-0.740527	1.00552e-005 -38.0331 0 -0	39.2316	-0	1.14428e-005 -43.2815 0 -59.949	-72.975	-61.049	0 -14.1868 -3.08763 -0	-26.4886	-0	9.10607 -9.62778 4.76249 -3.91977	-22.5507	20.833	-1.01399e-005 -38.3535 0 -0	56.8296	-0	-1.12937e-005 -42.7176 0 -71.5104	-78.8705	-71.8354	0 -13.9965 -2.83857 -0	-38.3307	-0
